<svg width="22" height="23" viewBox="0 0 22 23" fill="none" xmlns="http://www.w3.org/2000/svg">
<path fill-rule="evenodd" clip-rule="evenodd" d="M10.9911 0.472153C5.02113 0.472153 0.161133 5.33215 0.161133 11.3022C0.161133 17.2722 5.02113 22.1322 10.9911 22.1322C16.9611 22.1322 21.8211 17.2722 21.8211 11.3022C21.8211 5.33215 16.9711 0.472153 10.9911 0.472153ZM19.2411 7.34215H15.5111C15.3011 6.08215 14.9911 4.93215 14.5911 3.93215C14.4011 3.46215 14.2011 3.03215 13.9711 2.65215C16.2811 3.45215 18.1811 5.16215 19.2311 7.34215H19.2411ZM14.1511 11.3022C14.1511 12.0822 14.1111 12.8422 14.0411 13.5822H7.94113C7.87113 12.8422 7.83113 12.0822 7.83113 11.3022C7.83113 10.5222 7.87113 9.76215 7.94113 9.02215H14.0411C14.1111 9.76215 14.1511 10.5222 14.1511 11.3022ZM8.95113 4.56215C9.54113 3.08215 10.3311 2.16215 10.9911 2.16215C11.6511 2.16215 12.4411 3.08215 13.0311 4.56215C13.3611 5.38215 13.6211 6.32215 13.8011 7.35215H8.17113C8.36113 6.32215 8.62113 5.38215 8.94113 4.56215H8.95113ZM8.00113 2.66215C7.78113 3.04215 7.57113 3.46215 7.38113 3.94215C6.98113 4.94215 6.67113 6.10215 6.46113 7.35215H2.73113C3.78113 5.17215 5.68113 3.46215 7.99113 2.66215H8.00113ZM1.84113 11.3022C1.84113 10.5122 1.94113 9.75215 2.13113 9.02215H6.26113C6.19113 9.76215 6.16113 10.5222 6.16113 11.3022C6.16113 12.0822 6.19113 12.8422 6.26113 13.5822H2.13113C1.94113 12.8522 1.84113 12.0922 1.84113 11.3022ZM2.74113 15.2622H6.47113C6.68113 16.5222 6.99113 17.6722 7.39113 18.6722C7.58113 19.1422 7.78113 19.5722 8.01113 19.9522C5.70113 19.1522 3.80113 17.4422 2.75113 15.2622H2.74113ZM13.0411 18.0522C12.4511 19.5322 11.6611 20.4522 11.0011 20.4522C10.3411 20.4522 9.55113 19.5322 8.96113 18.0522C8.63113 17.2322 8.37113 16.2922 8.19113 15.2622H13.8211C13.6311 16.2922 13.3711 17.2322 13.0511 18.0522H13.0411ZM13.9811 19.9522C14.2011 19.5722 14.4111 19.1422 14.6011 18.6722C15.0011 17.6722 15.3111 16.5122 15.5211 15.2622H19.2511C18.2011 17.4422 16.3011 19.1522 13.9911 19.9522H13.9811ZM15.7311 13.5822C15.8011 12.8422 15.8311 12.0822 15.8311 11.3022C15.8311 10.5222 15.7911 9.76215 15.7311 9.02215H19.8611C20.0511 9.75215 20.1511 10.5122 20.1511 11.3022C20.1511 12.0922 20.0511 12.8522 19.8611 13.5822H15.7311Z" fill="black"/>
</svg>
